HIERARCHY
ROOT hip
{
	OFFSET 0.000000 0.000000 0.000000 
	CHANNELS 6 Xposition Yposition Zposition Xrotation Zrotation Yrotation
	JOINT abdomen
	{
		OFFSET 0.000000 3.402643 0.000000 
		CHANNELS 3 Xrotation Zrotation Yrotation
		JOINT chest
		{
			OFFSET 0.000000 8.438565 -0.680529 
			CHANNELS 3 Xrotation Zrotation Yrotation
			JOINT neck
			{
				OFFSET 0.000000 10.207942 -0.272212 
				CHANNELS 3 Xrotation Zrotation Yrotation
				JOINT head
				{
					OFFSET 0.000000 3.130431 0.000000 
					CHANNELS 3 Xrotation Zrotation Yrotation
					End Site
					{
						OFFSET 0.000000 3.130435 0.000000 
					}
				}
			}
			JOINT lCollar
			{
				OFFSET 3.470700 6.669187 -0.816635 
				CHANNELS 3 Yrotation Zrotation Xrotation
				JOINT lShldr
				{
					OFFSET 3.198488 0.000000 0.000000 
					CHANNELS 3 Zrotation Yrotation Xrotation
					JOINT lForeArm
					{
						OFFSET 10.139888 0.000000 0.000000 
						CHANNELS 3 Yrotation Zrotation Xrotation
						JOINT lHand
						{
							OFFSET 8.370511 0.000000 0.000000 
							CHANNELS 3 Zrotation Yrotation Xrotation
							End Site
							{
								OFFSET 4.083176 0.000000 0.000000 
							}
						}
					}
				}
			}
			JOINT rCollar
			{
				OFFSET -3.470700 6.669187 -0.816635 
				CHANNELS 3 Yrotation Zrotation Xrotation
				JOINT rShldr
				{
					OFFSET -3.198488 0.000000 0.000000 
					CHANNELS 3 Zrotation Yrotation Xrotation
					JOINT rForeArm
					{
						OFFSET -10.139888 0.000000 0.000000 
						CHANNELS 3 Yrotation Zrotation Xrotation
						JOINT rHand
						{
							OFFSET -8.370511 0.000000 0.000000 
							CHANNELS 3 Zrotation Yrotation Xrotation
							End Site
							{
								OFFSET -4.083176 0.000000 0.000000 
							}
						}
					}
				}
			}
		}
	}
	JOINT lThigh
	{
		OFFSET 5.308129 -1.633274 1.361059 
		CHANNELS 3 Xrotation Zrotation Yrotation
		JOINT lShin
		{
			OFFSET -2.041588 -20.007561 0.000000 
			CHANNELS 3 Xrotation Zrotation Yrotation
			JOINT lFoot
			{
				OFFSET 0.000000 -19.190928 -1.224953 
				CHANNELS 3 Xrotation Yrotation Zrotation
				End Site
				{
					OFFSET 0.000000 -2.449906 4.627600 
				}
			}
		}
	}
	JOINT rThigh
	{
		OFFSET -5.308129 -1.633274 1.361059 
		CHANNELS 3 Xrotation Zrotation Yrotation
		JOINT rShin
		{
			OFFSET 2.041588 -20.007561 0.000000 
			CHANNELS 3 Xrotation Zrotation Yrotation
			JOINT rFoot
			{
				OFFSET 0.000000 -19.190928 -1.224953 
				CHANNELS 3 Xrotation Yrotation Zrotation
				End Site
				{
					OFFSET 0.000000 -2.449906 4.627600 
				}
			}
		}
	}
}
MOTION
Frames: 8
Frame Time: 0.033333
-0.112520 40.175606 -0.141950 18.302366 -4.042929 0.253963 0.000000 0.000000 0.000000 7.572508 0.902480 6.436437 -8.307540 4.257753 0.304074 -18.898762 -2.772117 -1.769760 3.531613 27.243998 22.754896 -99.225731 -17.427521 2.941053 -112.820747 -1.639678 102.103264 6.292562 3.231422 -60.677597 -11.792298 -20.663668 19.950531 72.450119 21.509159 69.507744 112.439552 -68.361641 62.210545 10.233375 -5.971297 -80.663574 -50.049026 13.447632 14.545301 83.403946 19.835238 1.218359 -16.574030 -7.692981 -46.458900 -47.846561 -3.945234 2.070195 75.384270 -9.266165 3.966262 -9.557079 -8.700062 89.428047 
-0.102527 41.232662 0.026091 18.190025 -4.511700 0.166269 0.000000 0.000000 0.000000 6.115706 1.455129 6.603888 -5.947891 4.794836 0.343050 -17.650761 -2.820721 -1.897041 4.193999 28.187878 22.347441 -96.751572 -26.604528 1.854803 -113.596100 -3.050370 97.089912 5.527308 1.991965 -60.853989 -12.954199 -21.618731 19.279230 71.667831 29.504341 67.282913 117.427795 -68.605408 66.021530 10.190012 -5.091253 -80.835342 -47.027233 13.425295 15.255311 78.621269 19.991367 1.361419 -13.720384 -8.939280 -44.638710 -44.878372 -3.359192 2.067724 70.726479 -8.934015 3.636875 -5.830354 -8.244132 88.351868 
-0.063043 42.954189 0.309203 18.459906 -4.931624 -0.147621 0.000000 0.000000 0.000000 3.763914 1.997534 6.810995 -2.794701 5.458856 0.392569 -15.906706 -2.820525 -2.014566 5.420202 29.337366 21.616064 -93.714485 -33.558319 0.596148 -115.856018 -2.260296 90.163895 6.162421 0.675487 -61.127625 -14.602975 -22.798086 18.285831 69.819809 35.542313 64.843468 126.738159 -68.625938 74.032326 9.555222 -3.575511 -81.155159 -42.524830 13.629849 16.356617 70.680931 19.377432 1.412128 -8.257759 -11.706187 -40.420956 -40.691769 -3.027275 1.951896 63.207767 -8.298927 3.095400 0.152221 -6.173241 86.634407 
0.002808 45.168541 0.652453 19.096182 -5.263297 -0.686982 0.000000 0.000000 0.000000 0.880274 2.481447 6.989371 0.778739 6.152170 0.432446 -14.001316 -2.810715 -2.043827 6.950016 29.993219 20.662029 -90.148804 -38.058765 -0.993683 -118.964973 0.519258 82.166481 7.193925 -0.761451 -61.470123 -16.482929 -24.008703 17.119184 67.091820 39.381809 62.345966 -41.176064 -111.672043 -95.696869 8.512311 -2.112394 -81.491211 -36.931965 13.856095 17.600498 59.842602 17.768154 1.394625 -0.128877 -15.464542 -34.277851 -35.883152 -2.958757 1.707603 53.400639 -7.457902 2.309183 7.919236 -3.192024 83.738991 
0.087062 47.670826 1.005175 19.887201 -5.447640 -1.383712 0.000000 0.000000 0.000000 -2.070671 2.887702 7.128257 4.461246 6.786872 0.482087 -12.336645 -2.840210 -1.916549 8.490720 29.993774 19.661467 -85.797119 -40.117973 -3.086636 -122.551247 4.530471 73.828949 7.976651 -2.183917 -61.836456 -18.328619 -24.986805 15.954051 63.632030 41.093987 59.929726 -27.992268 -112.638367 -84.694565 7.267378 -0.990575 -81.824615 -30.798145 13.923310 18.780325 47.111153 15.238600 1.380293 10.084545 -19.117037 -27.026127 -31.106308 -3.105259 1.438314 42.674530 -6.327993 1.477618 16.581675 -0.349578 79.919815 
0.172306 50.213722 1.320473 20.540831 -5.523411 -2.168857 0.000000 0.000000 0.000000 -4.547138 3.187411 7.228379 7.973481 7.245818 0.502691 -11.265351 -2.977379 -1.584460 9.787137 29.997057 18.814507 -80.505058 -39.854641 -5.738265 -126.458549 8.857583 65.503998 8.436275 -3.552480 -62.164249 -19.915125 -25.573820 14.991919 59.618679 40.913246 57.695057 -15.423013 -114.525284 -74.011879 6.002906 -0.223305 -82.113640 -25.017763 13.806532 19.700153 34.781811 12.448582 1.410424 20.382177 -21.570301 -20.527334 -27.118830 -3.359313 1.141374 33.351021 -5.150684 0.859307 24.281343 1.342414 76.534889 
0.215584 52.410301 1.514104 20.737295 -5.588800 -2.855858 0.000000 0.000000 0.000000 -5.876482 3.380732 7.288576 10.768520 7.480184 0.502708 -10.972733 -3.153680 -1.134858 10.756356 29.997494 18.140364 -74.927864 -37.271439 -8.557484 -130.339798 12.279308 57.444424 8.889619 -5.213725 -62.587925 -21.040636 -25.838758 14.333369 55.636612 38.728382 56.067783 -5.163590 -117.267601 -64.442612 5.058989 0.323269 -82.343353 -21.431480 13.930028 20.264071 27.824909 10.592382 1.357961 26.090096 -22.102268 -16.981905 -24.972534 -3.475660 1.004302 29.167902 -4.369801 0.631982 27.566196 0.988421 75.946594 
0.172783 54.141735 1.620512 20.340755 -5.984705 -3.544843 0.000000 0.000000 0.000000 -5.980085 3.680455 7.359238 12.528671 7.597355 0.512392 -10.992025 -3.154120 -0.606701 11.866649 29.988672 17.328068 -70.551979 -33.123161 -10.771100 -133.814682 14.830269 51.360546 9.119343 -6.702950 -62.910511 -21.814793 -26.372608 13.734291 52.917919 35.256737 55.485073 1.865325 -120.151932 -57.660763 4.846949 0.662909 -82.408173 -19.794258 14.881792 20.828501 26.890951 9.739254 1.250040 27.482941 -22.017864 -15.930700 -23.833382 -2.929071 1.118540 28.889601 -4.095631 0.677673 27.422520 -0.185746 76.420914 
